HIERARCHY
ROOT hip
{
	OFFSET 0.000000 0.000000 0.000000
	CHANNELS 6 Xposition Yposition Zposition Xrotation Zrotation Yrotation 
	JOINT abdomen
	{
		OFFSET 0.000000 3.422050 0.000000
		CHANNELS 3 Xrotation Zrotation Yrotation 
		JOINT chest
		{
			OFFSET 0.000000 8.486693 -0.684411
			CHANNELS 3 Xrotation Zrotation Yrotation 
			JOINT neck
			{
				OFFSET 0.000000 10.266162 -0.273764
				CHANNELS 3 Xrotation Zrotation Yrotation 
				JOINT head
				{
					OFFSET 0.000000 3.148285 0.000000
					CHANNELS 3 Xrotation Zrotation Yrotation 
					End Site
					{
						OFFSET 0.000000 3.148289 0.000000
					}
				}
			}
			JOINT lCollar
			{
				OFFSET 3.422053 6.707223 -0.821293
				CHANNELS 3 Yrotation Zrotation Xrotation 
				JOINT lShldr
				{
					OFFSET 3.285171 0.000000 0.000000
					CHANNELS 3 Zrotation Yrotation Xrotation 
					JOINT lForeArm
					{
						OFFSET 10.129278 0.000000 0.000000
						CHANNELS 3 Yrotation Zrotation Xrotation 
						JOINT lHand
						{
							OFFSET 8.486692 0.000000 0.000000
							CHANNELS 3 Zrotation Yrotation Xrotation 
							End Site
							{
								OFFSET 4.106464 0.000000 0.000000
							}
						}
					}
				}
			}
			JOINT rCollar
			{
				OFFSET -3.558935 6.707223 -0.821293
				CHANNELS 3 Yrotation Zrotation Xrotation 
				JOINT rShldr
				{
					OFFSET -3.148289 0.000000 0.000000
					CHANNELS 3 Zrotation Yrotation Xrotation 
					JOINT rForeArm
					{
						OFFSET -10.266159 0.000000 0.000000
						CHANNELS 3 Yrotation Zrotation Xrotation 
						JOINT rHand
						{
							OFFSET -8.349810 0.000000 0.000000
							CHANNELS 3 Zrotation Yrotation Xrotation 
							End Site
							{
								OFFSET -4.106464 0.000000 0.000000
							}
						}
					}
				}
			}
		}
	}
	JOINT lThigh
	{
		OFFSET 5.338403 -1.642589 1.368821
		CHANNELS 3 Xrotation Zrotation Yrotation 
		JOINT lShin
		{
			OFFSET -2.053232 -20.121670 0.000000
			CHANNELS 3 Xrotation Zrotation Yrotation 
			JOINT lFoot
			{
				OFFSET 0.000000 -19.300380 -1.231939
				CHANNELS 3 Xrotation Yrotation Zrotation 
				End Site
				{
					OFFSET 0.000000 -2.463878 4.653993
				}
			}
		}
	}
	JOINT rThigh
	{
		OFFSET -5.338403 -1.642589 1.368821
		CHANNELS 3 Xrotation Zrotation Yrotation 
		JOINT rShin
		{
			OFFSET 2.053232 -20.121670 0.000000
			CHANNELS 3 Xrotation Zrotation Yrotation 
			JOINT rFoot
			{
				OFFSET 0.000000 -19.300380 -1.231939
				CHANNELS 3 Xrotation Yrotation Zrotation 
				End Site
				{
					OFFSET 0.000000 -2.463878 4.653993
				}
			}
		}
	}
}
MOTION
Frames: 6
Frame Time: 0.100000
0.000000 43.528500 0.000000 0.000000 0.000000 0.000000 0.000000 0.000000 0.000000 0.000000 0.000000 0.000000 0.000000 0.000000 0.000000 0.000000 0.000000 0.000000 0.000000 0.000000 0.000000 0.000000 0.000000 0.000000 0.000000 0.000000 0.000000 0.000000 0.000000 0.000000 0.000000 0.000000 0.000000 0.000000 0.000000 0.000000 0.000000 0.000000 0.000000 0.000000 0.000000 0.000000 0.000000 0.000000 0.000000 0.000000 0.000000 0.000000 0.000000 0.000000 0.000000 0.000000 0.000000 0.000000 0.000000 0.000000 0.000000 0.000000 0.000000 0.000000 
5.776195 19.994209 3.901872 -90.001755 -0.005246 -90.001755 0.004431 -0.673183 -0.753676 3.252968 0.103422 -2.717418 0.000000 12.996869 0.000000 0.000000 8.998567 0.000000 -57.274498 20.781605 20.055929 21.528114 -37.921467 -90.070839 -21.730783 -15.940636 3.072305 -7.000325 0.000000 0.000000 -10.225962 -31.456734 -4.537015 -60.482624 57.169979 -21.165745 27.298418 1.076439 -0.198425 6.996825 0.000000 0.000000 -115.576340 12.232467 5.445206 127.649765 -9.262646 -5.760629 8.884896 0.934340 2.654958 -22.793381 15.082330 1.140013 110.528290 -15.050447 -2.829353 11.977400 -0.075478 -2.177597 
5.668919 19.994209 3.901872 -90.001633 -1.286666 -90.001633 0.004431 -0.673183 -0.753676 5.238516 0.087042 -2.718497 0.784482 12.996890 -0.000297 -1.210771 8.998623 -0.000115 -56.469772 22.237274 18.170574 19.865215 -37.943871 -89.122864 -22.042938 -16.279297 2.988696 -7.936449 0.152179 -0.065042 -10.225962 -31.456734 -4.537015 -60.482632 57.169983 -21.165751 27.298420 1.076439 -0.198425 6.996825 0.000000 0.000000 -113.664024 13.173731 5.856271 127.937248 -9.190030 -5.811133 8.179061 0.531700 3.630122 -21.070225 15.105151 1.273395 110.162834 -15.021605 -2.736658 11.977400 -0.075478 -2.177597 
5.561643 19.994209 3.901872 -90.001511 -2.570016 -90.001511 0.004431 -0.673183 -0.753676 7.231336 0.070650 -2.720149 1.569407 12.996913 -0.000594 -2.423174 8.998679 -0.000231 -55.601715 23.671782 16.236626 18.199186 -37.944561 -88.172829 -22.356220 -16.617579 2.903000 -8.873527 0.303400 -0.132620 -10.225961 -31.456726 -4.537014 -60.482616 57.169975 -21.165745 27.298418 1.076439 -0.198424 6.996825 0.000000 0.000000 -111.729332 14.104772 6.302997 128.224625 -9.117160 -5.861263 7.479190 0.116521 4.601631 -19.342281 15.124139 1.407799 109.797432 -14.992192 -2.644156 11.977400 -0.075478 -2.177597 
5.454367 19.994209 3.901872 -90.001411 -3.854993 -90.001411 0.004431 -0.673183 -0.753676 9.230260 0.054276 -2.722378 2.354700 12.996939 -0.000890 -3.636940 8.998734 -0.000348 -54.668583 25.081514 14.252233 16.531376 -37.923412 -87.222023 -22.670631 -16.955460 2.815206 -9.811449 0.453599 -0.202712 -10.225961 -31.456730 -4.537014 -60.482624 57.169979 -21.165745 27.298418 1.076439 -0.198425 6.996825 0.000000 0.000000 -109.772430 15.023650 6.785576 128.511902 -9.044036 -5.911016 6.785610 -0.310963 5.569190 -17.610321 15.139227 1.543044 109.432083 -14.962202 -2.551855 11.977400 -0.075478 -2.177597 
5.347090 19.994209 3.901872 -90.001305 -5.141265 -90.001305 0.004431 -0.673183 -0.753676 11.234091 0.037949 -2.725184 3.140289 12.996967 -0.001186 -4.851800 8.998784 -0.000467 -53.668808 26.462788 12.215698 14.863206 -37.880398 -86.271790 -22.986195 -17.292912 2.725300 -10.750097 0.602712 -0.275295 -10.225962 -31.456734 -4.537015 -60.482632 57.169979 -21.165747 27.298418 1.076439 -0.198425 6.996825 0.000000 0.000000 -107.793510 15.928406 7.304086 128.799057 -8.970662 -5.960386 6.098629 -0.750502 6.532508 -15.875158 15.150384 1.678949 109.066826 -14.931647 -2.459760 11.977400 -0.075478 -2.177597 
